<mxfile host="app.diagrams.net" modified="2024-05-28T14:03:42.170Z" agent="Mozilla/5.0 (Windows NT 10.0; Win64; x64) AppleWebKit/537.36 (KHTML, like Gecko) Chrome/121.0.0.0 Safari/537.36" etag="zhJeUMxQIMoAq-fYjTzz" version="24.4.9" type="device">
  <diagram name="PÃ¡gina-1" id="asB9Y311YZkMh2i6Uz7x">
    <mxGraphModel dx="1434" dy="1941" grid="1" gridSize="10" guides="1" tooltips="1" connect="1" arrows="1" fold="1" page="1" pageScale="1" pageWidth="827" pageHeight="1169" math="0" shadow="0">
      <root>
        <mxCell id="0" />
        <mxCell id="1" parent="0" />
        <mxCell id="edTIMxwV_BTUuZvcCGBB-1" value="" style="rounded=1;whiteSpace=wrap;html=1;" vertex="1" parent="1">
          <mxGeometry x="350" y="-70" width="450" height="800" as="geometry" />
        </mxCell>
        <mxCell id="edTIMxwV_BTUuZvcCGBB-3" value="buscar" style="text;strokeColor=none;fillColor=none;html=1;fontSize=24;fontStyle=1;verticalAlign=middle;align=center;" vertex="1" parent="1">
          <mxGeometry x="525" y="-20" width="100" height="40" as="geometry" />
        </mxCell>
        <mxCell id="edTIMxwV_BTUuZvcCGBB-4" value="" style="rounded=0;whiteSpace=wrap;html=1;" vertex="1" parent="1">
          <mxGeometry x="402.5" y="80" width="345" height="30" as="geometry" />
        </mxCell>
        <mxCell id="edTIMxwV_BTUuZvcCGBB-8" value="" style="html=1;shadow=0;dashed=0;align=center;verticalAlign=middle;shape=mxgraph.arrows2.arrow;dy=0.63;dx=14;direction=south;notch=0;" vertex="1" parent="1">
          <mxGeometry x="707.5" y="80" width="40" height="30" as="geometry" />
        </mxCell>
      </root>
    </mxGraphModel>
  </diagram>
</mxfile>
